<svg width="41" height="40" viewBox="0 0 41 40" fill="none" xmlns="http://www.w3.org/2000/svg">
<circle cx="20.002" cy="20" r="20" fill="#346EA3"/>
<path fill-rule="evenodd" clip-rule="evenodd" d="M23.2841 9.55529C24.5171 10.1498 25.565 11.1306 26.3029 12.2803C26.6271 12.8483 27.0358 13.8182 27.244 14.7197C27.4602 15.6555 27.4691 16.5194 27.4364 16.8837C27.3739 17.58 27.249 18.2878 26.9784 18.9378C26.8049 19.3565 26.6106 19.759 26.3816 20.1523C25.9212 20.9388 25.3892 21.6837 24.8433 22.4077C24.2094 23.252 23.5501 24.0779 22.8747 24.8898C22.3843 25.4797 21.8846 26.0603 21.378 26.634C21.1698 26.87 20.9616 27.1059 20.7488 27.3372C20.5406 27.5639 20.2283 27.6611 19.9299 27.675C19.6523 27.6889 19.2984 27.5408 19.111 27.3372C19.1029 27.328 19.0942 27.3187 19.0856 27.3095C19.0769 27.3002 19.0682 27.291 19.0601 27.2817C18.7016 26.8885 18.3523 26.4906 18.003 26.0881C17.3691 25.3571 16.7469 24.6145 16.1408 23.8581C15.4237 22.9629 14.7182 22.0515 14.0774 21.1007C13.5546 20.3235 13.0549 19.5069 12.7588 18.6117C12.5992 18.1305 12.5159 17.6401 12.4512 17.1381C12.4026 16.7518 12.3864 16.3609 12.4049 15.9722C12.4419 15.2621 12.5622 14.545 12.7982 13.8741C13.2516 12.5833 14.0311 11.392 15.0998 10.5245C15.6388 10.0873 16.2056 9.70797 16.844 9.43269C17.2072 9.2777 17.5727 9.13197 17.9544 9.02787C18.3453 8.92378 18.7432 8.86363 19.1434 8.81505C20.5591 8.63925 22.0049 8.93766 23.2841 9.55529ZM25.1509 16.2984C25.1509 16.5378 25.1364 16.7772 25.1101 17.0153C25.0461 17.4152 24.9474 17.8116 24.8016 18.1885C24.3758 19.1402 23.7496 20.0114 23.1361 20.8486C22.9636 21.0842 22.7881 21.3183 22.6096 21.5509C22.002 22.3345 21.3728 23.1006 20.7303 23.8558C20.4638 24.1687 20.1957 24.4793 19.9256 24.7878C19.3764 24.1603 18.8339 23.5264 18.306 22.8819C17.9657 22.467 17.6291 22.0502 17.2996 21.6265L17.281 21.6024C16.5819 20.6937 15.8959 19.7595 15.3381 18.7528C15.2359 18.5688 15.1397 18.3819 15.053 18.1908C14.9055 17.8062 14.8061 17.4024 14.7403 16.9951C14.6897 16.5253 14.6899 16.0517 14.7412 15.582C14.8137 15.1347 14.934 14.6959 15.0996 14.2741C15.2849 13.8609 15.5138 13.47 15.7824 13.1039C16.0656 12.7558 16.3825 12.4387 16.7304 12.1554C17.098 11.8862 17.4934 11.6557 17.91 11.4678C18.3324 11.3029 18.7717 11.1844 19.2194 11.1112C19.6919 11.0604 20.1682 11.0607 20.6407 11.1123C21.0875 11.1848 21.5259 11.3049 21.9473 11.4704C22.3605 11.6557 22.7514 11.8846 23.1175 12.1533C23.4656 12.4364 23.7827 12.7533 24.066 13.1013C24.3352 13.4688 24.5657 13.8642 24.7536 14.2809C24.9195 14.7058 25.0384 15.1479 25.1115 15.5984C25.1367 15.8311 25.1491 16.064 25.1509 16.2984Z" fill="white"/>
<circle cx="20.002" cy="16.3257" r="2.87407" fill="white"/>
<path d="M17.2747 31.2346C17.8761 31.2346 18.4776 31.2346 19.079 31.2346C20.0275 31.2346 20.9782 31.2346 21.9266 31.2346C22.1464 31.2346 22.3662 31.2346 22.5859 31.2346C22.882 31.2346 23.1943 31.1051 23.4048 30.8969C23.6061 30.6957 23.7564 30.3672 23.7426 30.078C23.7287 29.7796 23.6315 29.4696 23.4048 29.2591C23.1781 29.0509 22.9005 28.9214 22.5859 28.9214C21.9845 28.9214 21.383 28.9214 20.7816 28.9214C19.8332 28.9214 18.8824 28.9214 17.934 28.9214C17.7142 28.9214 17.4945 28.9214 17.2747 28.9214C16.9786 28.9214 16.6663 29.0509 16.4558 29.2591C16.2546 29.4604 16.1042 29.7889 16.1181 30.078C16.132 30.3764 16.2291 30.6864 16.4558 30.8969C16.6825 31.1028 16.9624 31.2346 17.2747 31.2346Z" fill="white"/>
</svg>
